#amk 2

; 94F bytes

#instruments
{
	@4 $8B $8A $00 $03 $00			;@30
	@4 $8C $8C $00 $03 $00			;@31
	@29 $FF $FA $00 $03 $00			;@32
	@1 $8E $88 $00 $06 $00			;@33
	@29 $FF $F7 $00 $02 $E0			;@34
	@1 $80 $89 $00 $06 $00			;@35
	@1 $8E $A0 $00 $06 $00			;@36
	@0 $8C $88 $00 $06 $00			;@37
	@8 $FA $E0 $00 $1E $00			;@38
	@8 $FF $F5 $00 $1E $00			;@39
	@6 $8B $8A $00 $03 $00			;@40
	@1 $80 $C5 $00 $03 $00			;@41
	n1F $FF $F4 $00 $03 $00			;@42
	@10 $FF $F6 $00 $04 $50			;@43
	@14 $FF $E0 $00 $07 $00			;@44
}

#spc
{
	#author "David Wise"
	#game	"Donkey Kong Country (SMW)"
	#comment "Epic Final boss theme"
	#title	"Gang-Plank Galleon"
	#length "2:55"
}

#tempoimmunity
#option smwvtable

"Harmo=@30 p12,30"
"Toms=@32"
"Guitar=p12,30"
"Harmo2=@40 p12,30"
"Strings=v125 p16,35 y10 @41"
"X=@42 v70 y8"
"Y=@43 v145 y12,1,0"

$EF $00 $1A $1A
$F1 $04 $3C $01
$F5 $7F $0A $01 $01 $01 $01 $01 $01

w240 t45 $F4 $02


#0 y8 v125

(500)[Harmo
>f16e16d16c16
d16e16f16e16d16e16f=18r32g+64a=15r32f8r8c=120
f16r16f16e16f16r16f16e16
f16e16f16g16a8f8d16r16d16c16d16r16d16c16
d16c16d16e16f8d8f16r16f16e16f16r16f16e16
f16e16f16g16a16g16f16e16d16c16d16e16f16e16d16e16
f=18r32g+64a=15r32f8r8c+2
d16r16d16c16d16r16d16c16d16c16d16e16f8d8
c16r16c16<a+16>c16<a+16a16a+16>c16r16a16a+16a16g16f16e16
d16r16d16c16d16r16d16c16d16c16d16e16f8d8
d16c16d16e16f8d8g16e16d+16e16g64a32.g16f16e16 t50
q7e f16r16f16e16 q7d f16r16f16e16f16e16f16g16 q7c a8f8
d16r16d16c16 q7b d16r16d16c16 q79 d16c16d16e16 q77 f8d8]1
v210
(501)[Toms q7f r1 <y5 f+64g16..g16g16 y7 c+32d32d8< y9 a32 y10 b64 y11 b64 y13 b16b16b16b16b16 y15 g16] g16g16
$F4 $03
t55 y9 /
(502)[Guitar @33
[[r2]]8 o4
a=144a+4 $DD $04 $16 $B0
f=144g4 $DD $04 $16 $AD
g=144e2 $DD $27 $11 $A6 ^2.>
[[<a=144a+4 $DD $04 $16 $B0
f=144a+4 $DD $04 $16 $B0
e=144>c4
c2 $DD $04 $16 $B2 ^2]]2
@35 <f1^1^1^1
>d1^1^1^1< @36
[[a8a16g16a8a16g16a16g16a16g16a16a+8 $DD $04 $0C $B0 ^16
f8f16e16f8f16e16f16e16f16e16f16a+8 $DD $04 $0C $B0 ^16
g8g16f16g8g16f16g16f16g16f16g8 $DD $02 $0C $AD g8 $DD $02 $0C $AD
g2 $DD $02 $0C $AD ^2]]2
@35 f1^1^1^1
>d1^1^1^1<]


#7

y12 r8 v60 (500) v160 (501) $F4 $03 y11 v120 / r8 (502)

#2 y12

r1^8 v100
(77)[Harmo >a+2 $DD $04 $12 $BC
a+8a16r16a16g16a16r16a16g16
a16g16a16a+16>c8<a8f16r16f16e16f16r16f16e16
f16e16f16g16a8f8a16r16a16g16a16r16a16g16
a16g16a16a+16>c16<a+16a16g16f16e16f16g16a16g16f16g16
a16^32r32b64>c16^64r32<a8r8e2 $DD $00 $10 $B5]
o2 @32 $ED $7F $F6 y10 $DF
v180 g8 v135 g16g16g8g16{g32g32g32}g16g16g16g16g+64g+16..g-16g16
v155 (50)[g8g16g16g8g16{g32g32g32}g16g16g16g16g+64g+16..g-16g16]
v175 (50)
v195 (50)5
$F4 $03 o3 /
$E6 $00 v235 $FA $03 $30
(1)[$F4 $03 y10 q7f @21c16 q7b @21c16 q79 @21c16 q77 @21c16
$F4 $03 q7f y6 @34a16 q7b y13 a16 q79 y8 a16 q77 y12 a16
$F4 $03 y10 q7f @21c16 q7b @21c16 q7f @21c16@21c16
$F4 $03 q7f y6 @34a16 q7b y13 a16 q79 y8 a16 q77 y12 a16]3
(2)[$F4 $03 y10 q7f @21c16 q7b @21c16 q79 @21c16 q77 @21c16
$F4 $03 q7f y6 @34a16 q7b y13 a16 q79 y8 a16 q77 y12 a16
$F4 $03 y10 q7f @21c16 $F4 $03 y6 @34a16 q7b y13 a16 q79 y8 a16 q7f y6 a16 q7b y14 a16 q7f y6 a16a16]1
$E6 $01
(1)7 (2)
$E6 $00
(3)[$F4 $03 y10 q7f @21c16@21c16@21c16@21c16
$F4 $03 q7f y6 @34a16 q7b y14 a16 q79 y8 a16 q77 y12 a16
$F4 $03 y10 q7f @21c16 q7b @21c16 q7f @21c16@21c16
$F4 $03 q7f y6 @34a16 q7b y13 a16 q79 y8 a16 q77 y12 a16]3
(2)
$E6 $01
[$F4 $03 y10 q7f @21c32 q7b @21c32 q79 @21c32 q77 @21c32
$F4 $03 q7f y6 @34a32 q7b y13 a32 q79 y8 a32 q77 y12 a32
$F4 $03 y10 q7f @21c32 q7c @21c32 q7f @21c32 q7c @21c32
$F4 $03 q7f y6 @34a32 q7b y13 a32 q79 y8 a32 q77 y12 a32]16
$E6 $00
(3)3 (2)
$E6 $01


#3 Harmo2 v140

r8
(701)[o2a+16r16>f16r16c16r16g16r16f16r16>c16r16c8r8] c2^8
[<f16r16>c16r16]4 [o2 a+16r16>f16r16]4 [f16r16>c16r16<]4
(701) >a2
[o2a+16r16>f16r16]4
[f16r16>c16r16<]3 f16r16>c+16r16
[o2a+16r16>f16r16]4
<b16r16>g16r16<b16r16>g16r16c16r16g16r16c+16r16a16r16
@38 v245 $FA $03 $70
o1d1^1^1^1
@39 $FA $03 $FF v255 $DF > /
(85)[d8d16d16d8d16d16d16d16d16d16d8d16d16
<a+8a+16a+16a+8a+16a+16a+16a+16a+16a+16a+8a+16a+16
>c8c16c16c8c16c16c16c16c16c16c8c16c16
d8d16d16d8d16d16d16d16d16d16d16c8.]4
(86)[d16d16d16d16d2.
<a+16a+16a+16a+16a+2.
>c16c16c16c16c2.
d8d16d16d8d16d16d16d16d16d16d16c8.]2
(85)2
(86)2


#4 v130

r1..
(20)[@37 p16,24 o5f16e16f16g16a16g16a16a+16
>c8c16<a+16>c8<a8a+16a16a+8a+16a16a+8
a+16a16g16a16f8a8f16e16f16g16a16g16a16a+16
>c8c16<a+16>c8c8<a16g16a16a+16>c16<a+16a16g16
a8>c8<a8r8]
v170 (21)[y10 o3 @34 {g16 q7d e16e16e16e16e16 q7c g16e16e16e16e16e16} q7f]
r1^1
Strings o5 f1^1^1^1^1^1 $F4 $03 /
v180
(800)[ [[r2]]24 Guitar @33 o4
f2^4g4 $DD $04 $16 $AD
d2^4g4 $DD $04 $16 $AD
c2^4a4
g2 $DD $04 $16 $AD ^2
[[r2]]8 @35
a1^1^1^1
[[r2]]8 @36
f8f16e16f8f16e16f16e16f16e16f16g8 $DD $04 $0C $AD ^16
d8d16c16d8d16c16d16c16d16c16d16g8 $DD $04 $0C $AD ^16
e8e16d16e8e16d16e16d16e16d16e8 $DD $02 $0C $A9 e8 $DD $02 $0C $A9
e2 $DD $02 $0C $A9 ^2
[[r2]]8 @35
a1^1^1^1]

#6 v90

r1... y11
(20) v75 (21)
r1...
Strings y10 o5 d1^1^1^1^1^1 $F4 $03 /
r8 v90 (800)


#5 Harmo2 v120

r8
(700)[o3a+16r16a+16r16>c16r16c16r16f16r16f16r16f8r8] g2^8
[f16r16]8 < [a+16r16]8 > [f16r16]8
(700) <f2
[a+16r16]8 > [f16r16]8 < [a+16r16]8
b16r16b16r16b16r16b16r16>c16r16c16r16d16r16d16r16
@44 v135
[o3d16r16d16d16d16r16c16c16d16d16d16d16d16r16c16c16]4 /
(80)[y13 q7f d16r16d16d16d16r16d16d16d16d16d16d16d16r16d16d16
<a+16r16a+16a+16a+16r16a+16a+16a+16a+16a+16a+16a+16r16a+16a+16
>c16r16c16c16c16r16c16c16c16c16c16c16c16r16c16c16
d16r16d16d16d16r16d16d16d16d16d16d16d16c16 q7d y8 c16 y11 q7b c16]4
(81)[y11 q7f d16d16d16d16 q7d d16 q7b d16r=120 q7f
<a+16a+16a+16a+16 q7d a+16 q7b a+16r=120 q7f
>c16c16c16c16 q7d c16 q7b c16r=120 q7f
d16r16d16d16d16r16d16d16d16d16d16d16d16c16 q7d c16 q7bc16]2
(80)2 (81)2


#1 y8

r1^4 v60
(77)
r1...
o5 Strings a1^1^1^1^1^1
o2 $DF /
(60)[X c8 Y a16a16 X c8 Y a16g16 X c8 Y a16a16 X c8 Y a16a16]24
[X v75 c8]64
(60)8               
