#amk 1

#spc
{
#title "The Road is Full of Dangers"
#game "Super Mario RPG/SMW"
#author "Yoko Shimomura"
#comment "Ported by MercuryPenny"
}

#samples
{
#default
"default/13 SMW Thunder.brr"
}

#instruments
{
@13 $FF $E0 $00 $03 $00
@1 $AF $8D $7F $03 $00
@3 $FF $F6 $7F $06 $00
@0 $F9 $E0 $00 $06 $00
@29 $FD $F7 $7F $07 $BE
@13 $FF $70 $7F $06 $00
"default/13 SMW Thunder.brr" $FF $E0 $7F $0E $00
@3 $F9 $E0 $00 $06 $00
}

$EF $FF $0F $0F
$F1 $09 $55 $01

#0 @30 y11 w255 t41
o4 v120 $E8 $60 $FF f1. $E8 $60 $78 ^2/
r1^1^1^1^1^1^1^1
$E8 $60 $FF f1. $E8 $3C $50
^4^16 v180 @31 g16a16a+16
[g16a16a+16>f8<g16a16a+16a16a+16>c16f8<a16a+16>c16
<g16a16a+16>e8<g16a16a+16a16a+16>c16f16a16f16c16<a+16]2
a8a16a+8a+8a8a8a16a+8a+8
a8a16a+8a+8a8a8a16a+8a+8
@30 v120 $E8 $60 $FF f1. $E8 $60 $78 ^2
;
#7 @30 y9
v120 $E8 $60 $FF c1. $E8 $60 $78 ^2/
r1^1^1^1^1^1^1^1
v120 $E8 $60 $FF c1. $E8 $60 $78 ^2
v180 @31 [c8r16c8r8^16d8r16d8r8^16
c8r16c8r8^16c8r16c8r8^16]2
[f8f16f8f8f8f8f16f8f8]2
@30 v120 $E8 $60 $FF c1. $E8 $60 $78 ^2
;
#2 @32 v255 y15
o3(3)[c8f16d8d8c8c8f16d8f8]2/
[c8f16d8d8c8c8f16d8f8
c8f16d8d8c8c8<a+16a8a8]2
> @35 (3)6
@32 y11 $FA $03 $FF o3f32f32e16f16c8<a+32a+16^32a16a+32 v220 a+32a+32a+32a+32a+32> v255 f4^16
g32g32f16g16e32e16^32c8<a+16a32 v120 $E8 $30 $FF a32a32a32a32a32a32a32a32 $E8 $29 $79 a32a32a32a32a32a32a32 v255
>f32f32e16f16c8<a+32a+16^32a+16a+32 v220 a+32a+32a+32a+32a+32> v255 f4^16
g32g32f16g16e32e16^32f8g16f32 v120 $E8 $30 $FF f32f32f32f32f32f32f32f32 $E8 $29 $79 f32f32f32f32f32f32f32 $FA $03 $00
v255 y15
(3)4
;
#3 @32 v255 y5
o2(4)[a8>c16<a+8>f8<a8a8>c16<a+8>d8]2/
[<a8>c16<a+8>f8<a8a8>c16<a+8>d8
<a8>c16<a+8>f8<a8a8g16f8f8]2
@35 (4)6
@32 y9 $FA $03 $FF o3c16c16c16<a8g8f16g8^16>d4^16
e16d16e16c8<a8g16f32 v120 $E8 $30 $FF f32f32f32f32f32f32f32f32 $E8 $29 $79 f32f32f32f32f32f32f32 v255
>c16c16c16<a8g8f16g8^16>d4^16
e16d16e16c8c8<a+16a32 v120 $E8 $30 $FF a32a32a32a32a32a32a32a32 $E8 $29 $79 a32a32a32a32a32a32a32 $FA $03 $00 v255 y5
(4)4
;
#4 @8 v255 y10 $FA $03 $FF
o2
(1)[f4<a+16a+8>f8f8f16<a+16a+16>a+8]2/
(1)
(2)[f4<a+16a+8o3c8c8<e16f16f16>f8<]
(1)
(2)
(1)6
[f4>c16c8<f16g8^16g16>d16d16<g8
c4g16g8c16f8^16f16>c16c16<f8]2
(1)4
;
#5 @33 y11
r1^1/ v220
o4[c16r16f16d16r16f16r16<a16r16a+16r16>c16d8r8
c16r16f16d16r16f16r16a16r16g16r16e16f8r8]2
r1^1
v255 y10 @37 o5c2^8r8^16<a+16r16a16
g8a16f2r8^16f32g32a32a+32
o5c2^8r8^16d16r16c16
$F4 $01 e16&f16 $F4 $01 d16<a16r16a+16r16>d16c2
@33 y11 v220 r8o4c16r8c16r8^16<a+16r8^16a+16>d16r8^16
c16r8c16r8^16c16r8c16f16r4
c16r8c16r8^16<a+16r8^16a+16>d16r8^16
c16r8c16r8^16o5f16r16f16f16r8^16
r1^1^1^1;

#6 @33
r1^1/ v220 y9
o3[a16r16>c16<a+16r16>d16r16<f16r16g16r16a16a+8r8
a16r16>c16<a+16r16>d16r16f16r16e16r16c16c8r8]2
@36 y5
[o4 v150 f8 v140 f16 v150 f8 v140 f16 v150 f16f8 v120 f8 v140 f16 v150 f8 v140 f16f16]6 r8
v200 y9 @33 o4a16r8a16r8^16g16r8^16g16a+16r8^16
g16r8g16r8^16a16r8a16>c16r4<
a16r8a16r8^16g16r8^16g16a+16r8^16
g16r8g16r8^16o5a16r16a16a16r8^16
r1^1^1^1;

#1
r2^8< v180 y20 @23 f+8r2^8
@23 f+8r8 @23 f+8r8< v255 y10 @21 c32 @21 c32 @21 c32 @21 c32/
(0)[@21 c8 @34 d+16 @21 c16 @21 c16 @34 d+8 @21 c16 @34 d+16 @21 c16 v180 y20 @23 f+16 v255 y10 @34 d+16 @21 c16 @21 c16 @34 d+8
@21 c8 @34 d+16 @21 c16 @21 c16 @34 d+16 v180 y20 @23 f+16 v255 y10 @21 c16 @34 d+16 @21 c16 v180 y20 @23 f+16 v255 y10 @34 d+16 @21 c16 @21 c16 @34 d+8]2
@21 c4 @21 c8^16 @21 c8 @21 c8 v180 y20 @23 f+16 v255 y10 @21 c4
@21 c4 @21 c8 v180 y20 @23 f+16 v255 y10 @21 c8 @21 c8 v180 y20 @23 f+16 v255 y10 @21 c4
@21 c4 @21 c8^16 @21 c8 @21 c8 v180 y20 @23 f+16 v255 y10 @21 c4
@21 c4 @21 c8 v180 y20 @23 f+16 v255 y10 @21 c8 @21 c8 v180 y20 @23 f+16 v255 y10 @21 c8 c32 @21 c32 @21 c32 @21 c32
(0)3
@21 c4 @21 c8^16 @21 c8 @21 c8 v180 y20 @23 f+16 v255 y10 @21 c4
@21 c4 @21 c8 v180 y20 @23 f+16 v255 y10 @21 c8 @21 c8 v180 y20 @23 f+16 v255 y10 @21 c8 c32 @21 c32 @21 c32 @21 c32
(0)
;
