#am4
;-- HEADER AUTOMATICALLY GENERATED --
$ED $80 $6D $2B 
$ED $80 $7D $00 
$F0
;-- END OF HEADER -------------------

;Sonic 2 - "Chemical Plant Zone" - SNN
w220 t58
$EF $3F $30 $36 $F1 $01 $36 $00

;8 r1 = loop
#0
v0c4
@6 v220 p30,57
(1)[a16r=36 a=36 a16r=72 a16a16   r8a16a16r8a16b2^16   a16r=36 a=36 a16]1   r1^2
(1)   r1^4^8
f+16a16

/ @6 v255 $ED $7E $EF p20,95

(2)[>c+8<b16a16b16a16r16]1  (3)[a16r=72 f+16a16]1
(2)
(4)[b16r16a16r16b16r16>c+=36 
<a16f+16r16f+16r1^2^8]1
f+16a16
(2) (3) (2) (4)
r4
(6)[b16r16b8a16b16r16b16r16a16b8a16r16]1
(7)[>c+16<a16r16f+16r=168 ]1
(6)
(8)[>c+16<r1^16]1
(6)
(7)
(6)
(8) r2^4
@1 v255 $ED $7D $E6 p30,75
(9)[e16f+16 f+64$DD$01$03$AD^16^32^64 f+16c+16e16f+16r16 f+64$DD$01$03$AD^8^32^64 f+16c+16e16f+16r1]1
e16f+16     f+64$DD$01$03$AD^16^32^64 f+16c+16e16f+16r16 b8 a16b16>c+16r1^8
<
(9)
e16f+16a16r16b16r16>c+4e4
f+32^64$DD$01$BF$B4^4^8^16^32 f64$DD$01$1D$B6^1^8^16r32
c+16c+16<b16r16f+16 a=36 
f+32^64$DD$01$BF$A8^4^8^16^32 f64$DD$01$1D$AA^1^4^16r32
@6 v255 $ED $7E $EF p20,95
f+16a16

#1
r4
@14
r2^8
(10)[f+16c+16e16f+16]1 
(11)[r1^2^4]1
(10) (11) 
(10) (11)
(10) r2^8 
(12)[@1 >c+16c+16<a16r16b16>c+16]1 r8 
/ v200
r2^8  (13)[@14 <f+16c+16e16f+16r1^2^4f+16c+16e16f+16r2^8]1
(12)1 r2^4 (13)1
(12)1 r2^4
(14)[@14 r2^8<a16r16a16r16a16r16a16r16a4f+16r=180
;BENDS;
@1 > v250 p4,25
f+64$DD$01$04$AC^4^8^16^32^64

e64$DD$01$04$AA^4^8^16^32^64
   <
 v200 p5,5
]1 > r2^8
(14)1 @14
[d4d4e4r1^4]4
@1 v175
f+64$DD$01$BF$B4^4^8^16^32^16 f64$DD$01$1D$B6^1
r4^8^16
<
f+64$DD$01$BF$A8^4^8^16^32^16 f64$DD$01$1D$AA^1
[r1]40

#2
r4
[r1]3
o2 @14 v230
f+16d+=72 r16e16r16e16r16f16r16f16r16
(20)[f+16r16f+8f+16r16f+8f+16r16f+8f+16>
f+16<f+8f+16r16f+8f+16r16f+8f+16d+=36 e8f8
f+16r16f+8f+16r16f+8f+16r16f+8f+16>f+16<f+8
e16r16e8e16r16e8d+16r16d+8d+16r16d+8]1
/
(20)4 >
<e4f4f+4r1^8
>e16f+16
<e4f4f+4r1
>f16f+16d+16e16
<e4f4f+4r1
>e16r16e16f+16
<e4f4f+4r4
f+16d+4^8^16e4f4
f+2
[r1]3
>g+16a16g16g+16f+16g16<d+8
[r1]40

#3
r4
@8 $ED $7F $EA v244
[f+16r=36 f+=36 f+16r=72 f+16f+16r8f+16f+16r8f+16g+2^16f+16r=36 f+=36 f+16r1^2]2
/
o3
(35)[<f+16r16>f+16r16e16r16f+16<f+16r16f+16>f+16r16e16r16f+16r16]3
(36)[<e16r16>e16r16d+16r16e16<d+16r16d+16>d+16r16c+16r16d+16r16]1
(35)3 (36)1 (35)3 (36)1 (35)3 (36)1
r1
<f+16r16>f+16r16e16r16f+16<f+16r16f+16>f+16r16e16r16f+16r1^16
<e16r16>e16r16d+16r16e16<d+16r16d+16>d+16r16c+16r16d+16r1^16
<f+16r16>f+16r16e16r16f+16<f+16r16f+16>f+16r16e16r16f+16r1^1^16
(39)[a16r16g+16r16a8g+16a16r16a16g+16r16a8g+8]1
c+16r16<b16r16>c+8<b16>c+16r16c+16<b16r16>c+8<b8
(39)2
[r1]40

#4
r4
@4 p20,51 >> v180
(40)[f+16r=36 f+=36 f+16r=72 f+16f+16r8f+16f+16r8f+16g+2^16f+16r=36 f+=36 f+16r1^2]2
/
(40)4
v170
[g+=36 r16g+=36 r16a=36 r1^4^16]4 r1
<c+16r16<b16r16>c+8<b16>c+16r16c+16<b16r16>c+8<b8
>
(69)[f+16r16e16r16f+8e16f+16r16f+16e16r16f+8]1 e8
> f+16r16e16r16f+8e16f+16r16f+16e16r16f+8 e8 <
[r1]40

#5
r4
@6 v240 p30,57
>
(50)[a16r=36 a=36 a16r=72 a16a16r8a16a16r8a16b2^16a16r=36 a=36 a16r1^2]2
/
(50)4
>
[<b=36 r16b=36 r16>c+=36 r1^4^16]4
<<<
[>c+16r16<b16r16>c+8<b16>c+16r16c+16<b16r16>c+8<b8]2
>>
[f+16r16e16r16f+8e16f+16r16f+16e16r16f+8e8]2
[r1]40

#6
r4
;hi-hats
o3 v255
(60)[@23f+8@23f+16@23f+16@23f+8@23f+16@23f+16@23f+8@23f+16@23f+16@23f+8@23f+16@23f+16
@23f+8@23f+16@23f+16@23f+8@23f+16@23f+16@23f+8@23f+16@23f+16@23f+16@23f+16@23f+16@23f+16]4
/
(60)14
[r1]40

#7
r4
;other percussion
o3 v255
(70)[@21b4@29d8@21b4@21b8@29d8@21b8@21b4@29d8@21b=36 @21b=36 @29d4
@21b4@29d8@21b4@21b8@29d8@21b8@21b4@29d8@21b=36 @29d=36 @29d8@29d16@29d16]2
/
(70)6
@21b4@29d8@21b4@21b8@29d8@21b8@21b4@29d8@21b=36 @21b=36 @29d4
@21b4@29d8@21b4@21b8@29d8@21b8@21b4@29d8@21b8@29d16@29d16@29d16@29d16@29d16@29d16@29d16@29d16
[r1]40
